<svg width="16" height="27" viewBox="0 0 16 27" fill="none" xmlns="http://www.w3.org/2000/svg">
<path d="M9.1786 11.9527L12.0021 1.55273L0.708008 15.1526H7.29624L4.47271 25.5526L14.8257 11.9527H9.1786Z" fill="#FCCF37"/>
<path fill-rule="evenodd" clip-rule="evenodd" d="M12.2791 1.02022C12.5296 1.15033 12.6555 1.43746 12.5816 1.70988L9.96361 11.3526H14.826C15.0541 11.3526 15.2624 11.4819 15.3637 11.6862C15.4649 11.8905 15.4416 12.1346 15.3035 12.316L4.95052 25.9159C4.77665 26.1443 4.46536 26.2176 4.20788 26.0907C3.9504 25.9638 3.81886 25.6723 3.89407 25.3953L6.51202 15.7526H0.708405C0.475779 15.7526 0.264117 15.6181 0.165269 15.4075C0.0664199 15.197 0.0982007 14.9482 0.24682 14.7693L11.5409 1.16934C11.7213 0.952187 12.0286 0.8901 12.2791 1.02022ZM1.9866 14.5526H7.29664C7.48352 14.5526 7.65973 14.6397 7.77325 14.7881C7.88678 14.9366 7.92464 15.1294 7.87568 15.3098L5.8575 22.7434L13.6152 12.5526H9.17899C8.99211 12.5526 8.8159 12.4655 8.70238 12.3171C8.58885 12.1686 8.55099 11.9757 8.59995 11.7954L10.7 4.06026L1.9866 14.5526Z" fill="#FCCF37"/>
</svg>
