<svg width="25" height="25" viewBox="0 0 25 25" fill="none" xmlns="http://www.w3.org/2000/svg">
<path fill-rule="evenodd" clip-rule="evenodd" d="M24.4663 0.354024C24.7442 0.631958 24.8395 1.04399 24.7117 1.4157L17.1688 23.3585C17.0342 23.7503 16.6776 24.023 16.2643 24.0505C15.8509 24.0779 15.4614 23.8547 15.2762 23.4841L10.6295 14.1908L1.33617 9.54416C0.965636 9.35889 0.742412 8.96942 0.769848 8.55606C0.797283 8.1427 1.07002 7.78614 1.46179 7.65147L23.4046 0.108628C23.7763 -0.0191475 24.1884 0.0760895 24.4663 0.354024ZM4.44815 8.8002L11.8561 12.5042C12.0552 12.6037 12.2166 12.7651 12.3161 12.9642L16.0201 20.3722L22.0816 2.73869L4.44815 8.8002Z" fill="#1B212D"/>
<path fill-rule="evenodd" clip-rule="evenodd" d="M24.4664 1.80862L12.1236 14.1515L10.6689 12.6968L23.0118 0.354004L24.4664 1.80862Z" fill="#1B212D"/>
</svg>
