<svg width="38" height="37" viewBox="0 0 38 37" fill="none" xmlns="http://www.w3.org/2000/svg">
<path d="M29.6141 18.5246C29.6141 24.4893 24.6444 29.3246 18.5141 29.3246C12.3837 29.3246 7.41406 24.4893 7.41406 18.5246C7.41406 12.5599 12.3837 7.72461 18.5141 7.72461C24.6444 7.72461 29.6141 12.5599 29.6141 18.5246Z" fill="#333B4B"/>
<path fill-rule="evenodd" clip-rule="evenodd" d="M18.5141 27.9746C23.8781 27.9746 28.2266 23.7437 28.2266 18.5246C28.2266 13.3055 23.8781 9.07461 18.5141 9.07461C13.15 9.07461 8.80156 13.3055 8.80156 18.5246C8.80156 23.7437 13.15 27.9746 18.5141 27.9746ZM18.5141 29.3246C24.6444 29.3246 29.6141 24.4893 29.6141 18.5246C29.6141 12.5599 24.6444 7.72461 18.5141 7.72461C12.3837 7.72461 7.41406 12.5599 7.41406 18.5246C7.41406 24.4893 12.3837 29.3246 18.5141 29.3246Z" fill="#A9A9AD"/>
<path d="M19.8662 15.3575H21.3384C21.3925 15.3575 21.4461 15.3679 21.4961 15.388C21.5461 15.4082 21.5915 15.4377 21.6298 15.4749C21.6681 15.5121 21.6985 15.5563 21.7192 15.6049C21.7399 15.6536 21.7506 15.7057 21.7506 15.7583V17.1897H24.0471V15.7583C24.0461 15.0626 23.7625 14.3953 23.2579 13.902C22.7533 13.4087 22.0686 13.1292 21.3531 13.1245H19.8809L19.8662 15.3575Z" fill="#A9A9AD"/>
<path d="M15.2594 17.2041V15.7726C15.2594 15.6663 15.3029 15.5644 15.3802 15.4892C15.4575 15.4141 15.5623 15.3718 15.6716 15.3718H17.1438V13.1245H15.6716C14.9535 13.1255 14.2651 13.4033 13.7573 13.897C13.2496 14.3907 12.9639 15.0601 12.9629 15.7583V17.1897L15.2594 17.2041Z" fill="#A9A9AD"/>
<path d="M21.7662 19.8452V21.2766C21.7662 21.3829 21.7227 21.4849 21.6454 21.56C21.5681 21.6352 21.4633 21.6774 21.354 21.6774H19.8818V23.9248H21.354C22.0721 23.9238 22.7605 23.646 23.2683 23.1523C23.776 22.6586 24.0617 21.9892 24.0627 21.2909V19.8595L21.7662 19.8452Z" fill="#A9A9AD"/>
<path d="M17.1555 21.6911H15.6833C15.574 21.6911 15.4692 21.6489 15.3919 21.5737C15.3146 21.4985 15.2712 21.3966 15.2712 21.2903V19.8589H12.9746V21.2903C12.9756 21.9885 13.2613 22.6579 13.7691 23.1516C14.2768 23.6454 14.9652 23.9232 15.6833 23.9241H17.1555V21.6911Z" fill="#A9A9AD"/>
<path d="M18.4943 20.0414C19.3541 20.0414 20.0511 19.3621 20.0511 18.5241C20.0511 17.6862 19.3541 17.0068 18.4943 17.0068C17.6345 17.0068 16.9375 17.6862 16.9375 18.5241C16.9375 19.3621 17.6345 20.0414 18.4943 20.0414Z" fill="#A9A9AD"/>
</svg>
