<svg width="13" height="11" viewBox="0 0 13 11" fill="none" xmlns="http://www.w3.org/2000/svg">
<path d="M7.86621 2.35752H9.33836C9.39249 2.35752 9.44609 2.36789 9.4961 2.38803C9.54611 2.40817 9.59155 2.4377 9.62983 2.47491C9.6681 2.51213 9.69846 2.55632 9.71918 2.60494C9.73989 2.65357 9.75056 2.70569 9.75056 2.75832V4.18974H12.0471V2.75832C12.0461 2.06255 11.7625 1.39534 11.2579 0.902012C10.7533 0.40869 10.0686 0.129231 9.35308 0.124512H7.88094L7.86621 2.35752Z" fill="#A9A9AD"/>
<path d="M3.25944 4.20406V2.77264C3.25944 2.66634 3.30286 2.56439 3.38017 2.48923C3.45747 2.41407 3.56231 2.37184 3.67164 2.37184H5.14378V0.124512H3.67164C2.95353 0.125458 2.26512 0.403252 1.75734 0.896983C1.24956 1.39071 0.963864 2.06008 0.962891 2.75832V4.18974L3.25944 4.20406Z" fill="#A9A9AD"/>
<path d="M9.76617 6.84521V8.27663C9.76617 8.38293 9.72275 8.48487 9.64545 8.56004C9.56814 8.6352 9.4633 8.67743 9.35398 8.67743H7.88184V10.9248H9.35398C10.0721 10.9238 10.7605 10.646 11.2683 10.1523C11.776 9.65855 12.0617 8.98918 12.0627 8.29095V6.85953L9.76617 6.84521Z" fill="#A9A9AD"/>
<path d="M5.15549 8.6911H3.68335C3.57403 8.6911 3.46918 8.64888 3.39188 8.57371C3.31458 8.49855 3.27115 8.3966 3.27115 8.2903V6.85889H0.974609V8.2903C0.975583 8.98854 1.26128 9.65791 1.76906 10.1516C2.27683 10.6454 2.96525 10.9232 3.68335 10.9241H5.15549V8.6911Z" fill="#A9A9AD"/>
<path d="M6.49429 7.04144C7.35408 7.04144 8.05108 6.36212 8.05108 5.52414C8.05108 4.68616 7.35408 4.00684 6.49429 4.00684C5.6345 4.00684 4.9375 4.68616 4.9375 5.52414C4.9375 6.36212 5.6345 7.04144 6.49429 7.04144Z" fill="#A9A9AD"/>
</svg>
