<svg width="50" height="50" viewBox="0 0 41 41" fill="none" xmlns="http://www.w3.org/2000/svg">
<path fill-rule="evenodd" clip-rule="evenodd" d="M23.0378 14.1237H11.3622C11.0039 14.1237 10.7135 14.4141 10.7135 14.7723V25.1507C10.7135 25.5089 11.0039 25.7994 11.3622 25.7994H23.0378C23.3961 25.7994 23.6865 25.5089 23.6865 25.1507V14.7723C23.6865 14.4141 23.3961 14.1237 23.0378 14.1237ZM11.3622 12.1777C9.92922 12.1777 8.76758 13.3394 8.76758 14.7723V25.1507C8.76758 26.5837 9.92922 27.7453 11.3622 27.7453H23.0378C24.4708 27.7453 25.6324 26.5837 25.6324 25.1507V14.7723C25.6324 13.3394 24.4708 12.1777 23.0378 12.1777H11.3622Z" fill="#A9A9AD"/>
<path fill-rule="evenodd" clip-rule="evenodd" d="M31.8447 25.5086C31.271 25.8632 30.5546 25.8954 29.9514 25.5938L24.7622 22.9992C24.103 22.6696 23.6865 21.9957 23.6865 21.2587V18.6641C23.6865 17.927 24.103 17.2532 24.7622 16.9236L29.9514 14.329C30.5546 14.0274 31.271 14.0596 31.8447 14.4142C32.4184 14.7687 32.7676 15.3951 32.7676 16.0695V23.8533C32.7676 24.5277 32.4184 25.154 31.8447 25.5086ZM30.8217 23.8533V16.0695L25.6325 18.6641V21.2587L30.8217 23.8533Z" fill="#A9A9AD"/>
</svg>
