<svg width="40" height="40" viewBox="0 0 33 33" fill="none" xmlns="http://www.w3.org/2000/svg">
<path fill-rule="evenodd" clip-rule="evenodd" d="M16.9313 12.3294H11.18L10.6794 10.4429C10.4994 9.76768 9.88785 9.29785 9.18901 9.29785L7.67323 9.29787C7.38926 9.29787 7.16797 9.51915 7.16797 9.80311C7.16797 10.0871 7.38929 10.3084 7.67326 10.3084H9.18901C9.42195 10.3084 9.6258 10.4828 9.68582 10.7079L10.2858 12.9672L12.1578 21.2359C12.3181 21.9373 12.942 22.4347 13.6615 22.4347H21.453C22.0437 22.4347 22.5825 22.0973 22.8405 21.5659L26.2111 14.5457C26.7086 13.5212 25.9624 12.3294 24.8235 12.3294H24.2846C24.1731 12.6988 24.0075 13.0446 23.7969 13.3578H24.8235C25.2032 13.3578 25.4519 13.755 25.2861 14.0965L24.1331 16.4979H21.0945V15.0273C20.9352 15.0475 20.7728 15.0579 20.608 15.0579C20.4241 15.0579 20.2432 15.0449 20.0662 15.0199V16.4979H15.328V13.3578H17.419C17.2085 13.0446 17.0428 12.6988 16.9313 12.3294ZM12.1403 16.4979L11.43 13.3578H14.368V16.4979H12.1403ZM12.3729 17.5262L13.1603 21.0067C13.2137 21.2405 13.4217 21.4063 13.6615 21.4063H14.368V17.5262H12.3729ZM15.328 21.4063H20.0662V17.5262H15.328V21.4063ZM21.0945 21.4063H21.453C21.6499 21.4063 21.8295 21.2939 21.9155 21.1167L23.6394 17.5262H21.0945V21.4063Z" fill="#A9A9AD"/>
<path fill-rule="evenodd" clip-rule="evenodd" d="M20.6076 14.0979C22.1982 14.0979 23.4876 12.8085 23.4876 11.2179C23.4876 9.62735 22.1982 8.33793 20.6076 8.33793C19.017 8.33793 17.7276 9.62735 17.7276 11.2179C17.7276 12.8085 19.017 14.0979 20.6076 14.0979ZM20.6076 15.0579C22.7284 15.0579 24.4476 13.3387 24.4476 11.2179C24.4476 9.09716 22.7284 7.37793 20.6076 7.37793C18.4868 7.37793 16.7676 9.09716 16.7676 11.2179C16.7676 13.3387 18.4868 15.0579 20.6076 15.0579Z" fill="#A9A9AD"/>
<path d="M22.5275 11.2179C22.5275 12.2782 21.6679 13.1379 20.6075 13.1379C19.5471 13.1379 18.6875 12.2782 18.6875 11.2179C18.6875 10.1575 19.5471 9.29785 20.6075 9.29785C21.6679 9.29785 22.5275 10.1575 22.5275 11.2179Z" fill="#A9A9AD"/>
<path d="M15.8077 23.6978C15.8077 24.228 15.3779 24.6578 14.8477 24.6578C14.3175 24.6578 13.8877 24.228 13.8877 23.6978C13.8877 23.1676 14.3175 22.7378 14.8477 22.7378C15.3779 22.7378 15.8077 23.1676 15.8077 23.6978Z" fill="#A9A9AD"/>
<path d="M21.5684 23.6978C21.5684 24.228 21.1386 24.6578 20.6084 24.6578C20.0782 24.6578 19.6484 24.228 19.6484 23.6978C19.6484 23.1676 20.0782 22.7378 20.6084 22.7378C21.1386 22.7378 21.5684 23.1676 21.5684 23.6978Z" fill="#A9A9AD"/>
</svg>
