<svg width="40" height="40" viewBox="0 0 33 33" fill="none" xmlns="http://www.w3.org/2000/svg">
<path fill-rule="evenodd" clip-rule="evenodd" d="M7.86167 16.1777C8.52661 17.27 9.67989 18.6575 11.1555 19.8039C12.7663 21.0553 14.7062 21.9777 16.7674 21.9777C18.8285 21.9777 20.7685 21.0553 22.3793 19.8039C23.8549 18.6575 25.0082 17.27 25.6731 16.1777C25.0082 15.0855 23.8549 13.6979 22.3793 12.5515C20.7685 11.3001 18.8285 10.3777 16.7674 10.3777C14.7062 10.3777 12.7663 11.3001 11.1555 12.5515C9.67989 13.6979 8.52661 15.0855 7.86167 16.1777ZM10.4193 11.6039C12.1552 10.2553 14.3485 9.17773 16.7674 9.17773C19.1862 9.17773 21.3796 10.2553 23.1155 11.6039C24.8518 12.9529 26.1854 14.6146 26.8919 15.8863C26.9926 16.0676 26.9926 16.2879 26.8919 16.4691C26.1854 17.7408 24.8518 19.4026 23.1155 20.7515C21.3796 22.1001 19.1862 23.1777 16.7674 23.1777C14.3485 23.1777 12.1552 22.1001 10.4193 20.7515C8.68293 19.4026 7.34939 17.7408 6.64289 16.4691C6.54221 16.2879 6.54221 16.0676 6.64289 15.8863C7.34939 14.6146 8.68293 12.9529 10.4193 11.6039Z" fill="#A9A9AD"/>
<path fill-rule="evenodd" clip-rule="evenodd" d="M16.7678 13.5779C15.3318 13.5779 14.1678 14.742 14.1678 16.1779C14.1678 17.6139 15.3318 18.7779 16.7678 18.7779C18.2037 18.7779 19.3678 17.6139 19.3678 16.1779C19.3678 14.742 18.2037 13.5779 16.7678 13.5779ZM12.9678 16.1779C12.9678 14.0792 14.6691 12.3779 16.7678 12.3779C18.8665 12.3779 20.5678 14.0792 20.5678 16.1779C20.5678 18.2766 18.8665 19.9779 16.7678 19.9779C14.6691 19.9779 12.9678 18.2766 12.9678 16.1779Z" fill="#A9A9AD"/>
</svg>
