<svg width="50" height="50" viewBox="0 0 41 41" fill="none" xmlns="http://www.w3.org/2000/svg">
<path fill-rule="evenodd" clip-rule="evenodd" d="M13.1244 18.212L12.1376 19.1987L17.0715 24.1326L18.0583 23.1458L13.1244 18.212ZM11.1508 18.212C10.6059 18.7569 10.6059 19.6405 11.1508 20.1855L16.0847 25.1194C16.6297 25.6644 17.5133 25.6644 18.0583 25.1194L19.045 24.1326C19.59 23.5876 19.59 22.704 19.045 22.1591L14.1112 17.2252C13.5662 16.6802 12.6826 16.6802 12.1376 17.2252L11.1508 18.212Z" fill="#A9A9AD"/>
<path fill-rule="evenodd" clip-rule="evenodd" d="M22.9921 8.34422L22.0053 9.33099L26.9392 14.2649L27.926 13.2781L22.9921 8.34422ZM21.0186 8.34422C20.4736 8.8892 20.4736 9.77278 21.0186 10.3178L25.9524 15.2516C26.4974 15.7966 27.381 15.7966 27.926 15.2516L28.9128 14.2649C29.4577 13.7199 29.4577 12.8363 28.9128 12.2913L23.9789 7.35744C23.4339 6.81246 22.5503 6.81246 22.0053 7.35744L21.0186 8.34422Z" fill="#A9A9AD"/>
<path fill-rule="evenodd" clip-rule="evenodd" d="M22.0053 11.3045L15.0979 18.212L18.0583 21.1723L24.9657 14.2649L22.0053 11.3045ZM14.1112 17.2252C13.5662 17.7702 13.5662 18.6537 14.1112 19.1987L17.0715 22.1591C17.6165 22.704 18.5 22.704 19.045 22.1591L25.9524 15.2516C26.4974 14.7067 26.4974 13.8231 25.9524 13.2781L22.9921 10.3178C22.4471 9.77278 21.5636 9.77278 21.0186 10.3178L14.1112 17.2252Z" fill="#A9A9AD"/>
<path fill-rule="evenodd" clip-rule="evenodd" d="M22.9921 18.212L22.0053 19.1987L31.8731 29.0665L32.8599 28.0797L22.9921 18.212ZM21.0186 18.212C20.4736 18.7569 20.4736 19.6405 21.0186 20.1855L30.8863 30.0532C31.4313 30.5982 32.3149 30.5982 32.8599 30.0532L33.8466 29.0665C34.3916 28.5215 34.3916 27.6379 33.8466 27.0929L23.9789 17.2252C23.4339 16.6802 22.5503 16.6802 22.0053 17.2252L21.0186 18.212Z" fill="#A9A9AD"/>
<path d="M7.76758 32.1777C7.76758 31.6254 8.21529 31.1777 8.76758 31.1777H19.7676C20.3199 31.1777 20.7676 31.6254 20.7676 32.1777C20.7676 32.73 20.3199 33.1777 19.7676 33.1777H8.76758C8.21529 33.1777 7.76758 32.73 7.76758 32.1777Z" fill="#A9A9AD"/>
<path d="M9.76758 29.1777C9.76758 28.6254 10.2153 28.1777 10.7676 28.1777H17.7676C18.3199 28.1777 18.7676 28.6254 18.7676 29.1777C18.7676 29.73 18.3199 30.1777 17.7676 30.1777H10.7676C10.2153 30.1777 9.76758 29.73 9.76758 29.1777Z" fill="#A9A9AD"/>
</svg>
