<svg width="40" height="40" viewBox="0 0 33 33" fill="none" xmlns="http://www.w3.org/2000/svg">
<path fill-rule="evenodd" clip-rule="evenodd" d="M22.115 11.3776H12.0098V9.86182H22.115V11.3776Z" fill="#A9A9AD"/>
<path fill-rule="evenodd" clip-rule="evenodd" d="M19.0835 15.4196H12.0098V13.9038H19.0835V15.4196Z" fill="#A9A9AD"/>
<path fill-rule="evenodd" clip-rule="evenodd" d="M24.1362 8.09343H9.98883C9.70978 8.09343 9.48356 8.31964 9.48356 8.59869V21.9736L10.6106 20.784C11.0876 20.2804 11.7508 19.9952 12.4445 19.9952H24.1362C24.4152 19.9952 24.6415 19.769 24.6415 19.4899V8.59869C24.6415 8.31964 24.4152 8.09343 24.1362 8.09343ZM11.7109 21.8265C11.9018 21.6251 12.1671 21.511 12.4445 21.511H24.1362C25.2524 21.511 26.1572 20.6061 26.1572 19.4899V8.59869C26.1572 7.48249 25.2524 6.57764 24.1362 6.57764H9.98883C8.87263 6.57764 7.96777 7.48249 7.96777 8.59869V25.7776L11.7109 21.8265Z" fill="#A9A9AD"/>
</svg>
