<svg width="40" height="40" viewBox="0 0 33 33" fill="none" xmlns="http://www.w3.org/2000/svg">
<path fill-rule="evenodd" clip-rule="evenodd" d="M19.3822 10.3931C17.0628 8.07373 13.3024 8.07373 10.9831 10.3931C8.66371 12.7124 8.66371 16.4728 10.9831 18.7922C13.3024 21.1116 17.0628 21.1116 19.3822 18.7922C21.7015 16.4728 21.7015 12.7124 19.3822 10.3931ZM9.97516 9.38519C12.8512 6.50919 17.5141 6.50919 20.3901 9.38519C23.0961 12.0912 23.256 16.3791 20.8699 19.2721L25.6642 24.0663L24.6563 25.0742L19.8621 20.28C16.969 22.666 12.6812 22.5061 9.97516 19.8001C7.09917 16.9241 7.09917 12.2612 9.97516 9.38519Z" fill="#A9A9AD"/>
<path d="M18.3678 14.5779C18.3678 16.3452 16.9351 17.7779 15.1678 17.7779C13.4005 17.7779 11.9678 16.3452 11.9678 14.5779C11.9678 12.8106 13.4005 11.3779 15.1678 11.3779C16.9351 11.3779 18.3678 12.8106 18.3678 14.5779Z" fill="#A9A9AD"/>
</svg>
