<svg width="40" height="40" viewBox="0 0 33 33" fill="none" xmlns="http://www.w3.org/2000/svg">
<path d="M9.10481 8.8446H23.6311C23.8985 8.8446 24.1153 9.06348 24.1153 9.33349V13.2446H25.568V9.33349C25.568 8.25346 24.7008 7.37793 23.6311 7.37793H9.10481C8.03512 7.37793 7.16797 8.25346 7.16797 9.33349V23.0224C7.16797 24.1024 8.03512 24.9779 9.10481 24.9779H23.6311C24.7008 24.9779 25.568 24.1024 25.568 23.0224V19.1113H24.1153V23.0224C24.1153 23.2924 23.8985 23.5113 23.6311 23.5113H9.10481C8.83739 23.5113 8.6206 23.2924 8.6206 23.0224V9.33349C8.6206 9.06348 8.83739 8.8446 9.10481 8.8446Z" fill="#A9A9AD"/>
<path fill-rule="evenodd" clip-rule="evenodd" d="M25.3906 14.0447H20.5017C19.4217 14.0447 18.5461 14.9998 18.5461 16.178C18.5461 17.3562 19.4217 18.3114 20.5017 18.3114H25.3906V14.0447ZM20.5017 12.978C18.8817 12.978 17.5684 14.4107 17.5684 16.178C17.5684 17.9453 18.8817 19.378 20.5017 19.378H25.3906C25.9306 19.378 26.3684 18.9005 26.3684 18.3114V14.0447C26.3684 13.4556 25.9306 12.978 25.3906 12.978H20.5017Z" fill="#A9A9AD"/>
</svg>
