<svg width="133" height="19" viewBox="0 0 133 19" fill="none" xmlns="http://www.w3.org/2000/svg">
<path d="M0.767578 0.47168H4.72222V14.5865H13.2944V17.8973H0.767578V0.47168Z" fill="white"/>
<path d="M17.9629 0.47168H21.9118V17.8973H17.9629V0.47168Z" fill="white"/>
<path d="M44.7709 0.47168L37.3417 17.8973H33.4442L26.0664 0.47168H30.3411L35.5415 12.8962L40.822 0.47168H44.7709Z" fill="white"/>
<path d="M61.8468 14.6504V17.8973H48.6113V0.47168H61.5325V3.71866H52.5431V7.49422H60.481V10.625H52.5431V14.6504H61.8468Z" fill="white"/>
<path d="M70.8484 17.0262C69.4748 16.2903 68.3263 15.1852 67.5282 13.8315C66.7095 12.4261 66.2901 10.8176 66.3166 9.18461C66.2901 7.55162 66.7095 5.94312 67.5282 4.53777C68.3247 3.17972 69.4733 2.07049 70.8484 1.33144C72.2024 0.636722 73.6874 0.24605 75.203 0.185918C76.7185 0.125786 78.229 0.3976 79.6321 0.982929C80.7998 1.49613 81.8331 2.27987 82.6495 3.2715L80.0893 5.65882C79.57 5.01227 78.9139 4.49316 78.1698 4.14015C77.4257 3.78715 76.6128 3.60935 75.7917 3.62001C74.7944 3.59523 73.8084 3.83975 72.9343 4.32866C72.1143 4.78475 71.44 5.4701 70.9913 6.30357C70.5136 7.19325 70.2732 8.19451 70.2941 9.20785C70.2732 10.2212 70.5136 11.2224 70.9913 12.1121C71.44 12.9456 72.1143 13.6309 72.9343 14.087C73.8084 14.5759 74.7944 14.8205 75.7917 14.7957C76.6203 14.7985 77.4384 14.6084 78.1833 14.2398C78.9283 13.8713 79.5803 13.3342 80.0893 12.6697L82.6324 15.0571C81.8207 16.0672 80.7818 16.8641 79.6035 17.3805C78.3373 17.92 76.976 18.1908 75.6032 18.1763C73.9483 18.2051 72.3131 17.8096 70.8484 17.0262Z" fill="white"/>
<path d="M129.052 17.8973V7.44194L124.023 16.0386H122.24L117.234 7.66267V17.8973H113.52V0.47168H116.766L123.166 11.2988L129.47 0.47168H132.716L132.767 17.8973H129.052Z" fill="white"/>
<path d="M100.256 4.04983H102.542C102.626 4.04983 102.709 4.06666 102.787 4.09935C102.864 4.13204 102.935 4.17996 102.994 4.24037C103.054 4.30078 103.101 4.3725 103.133 4.45143C103.165 4.53036 103.182 4.61496 103.182 4.70039V7.02381H106.748V4.70039C106.746 3.57104 106.306 2.48804 105.522 1.6873C104.739 0.88656 103.676 0.432954 102.565 0.425293H100.279L100.256 4.04983Z" fill="#DE1F26"/>
<path d="M93.1012 7.04705V4.72362C93.1012 4.55109 93.1686 4.38561 93.2887 4.26361C93.4087 4.14161 93.5715 4.07307 93.7413 4.07307H96.0272V0.425293H93.7413C92.6262 0.42683 91.5572 0.877734 90.7688 1.67914C89.9803 2.48054 89.5367 3.56704 89.5352 4.70039V7.02381L93.1012 7.04705Z" fill="#DE1F26"/>
<path d="M103.205 11.334V13.6574C103.205 13.8299 103.138 13.9954 103.018 14.1174C102.898 14.2394 102.735 14.308 102.565 14.308H100.279V17.9557H102.565C103.68 17.9542 104.749 17.5033 105.538 16.7019C106.326 15.9005 106.77 14.814 106.771 13.6806V11.3572L103.205 11.334Z" fill="#DE1F26"/>
<path d="M96.0447 14.3309H93.7588C93.5891 14.3309 93.4263 14.2624 93.3062 14.1404C93.1862 14.0184 93.1188 13.8529 93.1188 13.6804V11.3569H89.5527V13.6804C89.5542 14.8137 89.9979 15.9002 90.7863 16.7016C91.5748 17.503 92.6438 17.9539 93.7588 17.9554H96.0447V14.3309Z" fill="#DE1F26"/>
<path d="M98.1244 11.6532C99.4595 11.6532 100.542 10.5505 100.542 9.19037C100.542 7.83018 99.4595 6.72754 98.1244 6.72754C96.7893 6.72754 95.707 7.83018 95.707 9.19037C95.707 10.5505 96.7893 11.6532 98.1244 11.6532Z" fill="#DE1F26"/>
</svg>
