<svg width="30" height="30" viewBox="0 0 26 26" fill="none" xmlns="http://www.w3.org/2000/svg">
<path d="M24.8153 15.2401C24.653 14.9578 24.4128 14.7421 24.1368 14.599L24.5329 14.3914C24.9375 14.1777 25.2135 13.8269 25.3336 13.4338C25.4537 13.0387 25.4158 12.6012 25.1945 12.2142V12.2121C25.0302 11.9259 24.7752 11.694 24.4697 11.5509L24.7879 11.3836C25.1924 11.1699 25.4684 10.8191 25.5885 10.426C25.7086 10.0309 25.6707 9.59343 25.4495 9.20637C25.2283 8.81931 24.8595 8.55522 24.4487 8.44233C24.0357 8.32742 23.5785 8.3637 23.1739 8.57538L22.8495 8.74673C22.8811 8.43829 22.8179 8.11776 22.6514 7.82545C22.4302 7.43839 22.0614 7.1743 21.6506 7.05939C21.2376 6.94448 20.7804 6.98077 20.3759 7.19244L18.7071 8.07139C18.528 7.69643 18.2183 7.37589 17.8011 7.18236H17.799C17.445 7.01907 17.0489 6.96262 16.6612 7.02109L16.8445 6.66225C17.0763 6.20665 17.0932 5.70266 16.9309 5.25714C16.7708 4.81161 16.4316 4.42455 15.9554 4.2028C15.4792 3.98105 14.9525 3.96492 14.4868 4.12015C14.0212 4.27336 13.6166 4.59792 13.3849 5.05151L13.1994 5.4164C13.014 5.10796 12.7338 4.84589 12.3756 4.67856C11.8994 4.45681 11.3727 4.44068 10.907 4.59591C10.4414 4.74912 10.0369 5.07369 9.80508 5.52929L5.8018 13.3894C5.7112 13.5165 5.62903 13.6495 5.55739 13.7886L5.32141 14.2503L5.29823 14.1918C5.13599 13.7866 4.9885 13.3713 4.93161 13.2161C4.55446 12.1658 3.83598 11.6457 3.10907 11.5449C2.78038 11.4985 2.4559 11.5388 2.15881 11.6517C1.86173 11.7646 1.59414 11.9521 1.37923 12.2021C0.871443 12.7927 0.669172 13.7402 1.1601 14.8873L1.16642 14.9075L1.16853 14.9115C1.68895 16.3771 2.91101 20.8585 4.25527 22.2697C5.91769 24.0155 10.2202 25.6524 12.5357 24.8723C13.8126 24.4429 14.9209 23.5437 15.5614 22.2858L15.7995 21.8181C18.5849 20.3525 21.3682 18.8849 24.1558 17.4173C24.5603 17.2056 24.8364 16.8528 24.9543 16.4597C25.0744 16.0666 25.0386 15.6271 24.8153 15.2401ZM18.8799 8.80721C19.4972 8.48466 20.1188 8.16009 20.7404 7.83149C20.9595 7.71659 21.2102 7.69643 21.4357 7.75892C21.6611 7.82142 21.8613 7.96455 21.9814 8.17622C22.1015 8.38588 22.1225 8.62578 22.0572 8.84148C21.9919 9.05719 21.8423 9.2487 21.6211 9.36361L19.729 10.3595C19.6679 10.3232 19.6068 10.2889 19.5394 10.2587C19.1917 10.0974 18.8167 10.045 18.4585 10.0893L18.686 9.64383C18.823 9.37369 18.8841 9.08743 18.8799 8.80721ZM20.3105 10.9139L23.5384 9.21443C23.7576 9.09952 24.0083 9.07936 24.2338 9.14186C24.4592 9.20435 24.6594 9.34748 24.7795 9.55916C24.8996 9.76882 24.9206 10.0087 24.8553 10.2244C24.79 10.4401 24.6404 10.6316 24.4192 10.7465L20.3379 12.8935L20.4264 12.7181C20.6582 12.2625 20.675 11.7585 20.5128 11.313C20.4643 11.1739 20.3948 11.0389 20.3105 10.9139ZM19.7269 14.095L23.2835 12.2222C23.5026 12.1073 23.7534 12.0871 23.9788 12.1496C24.2043 12.2121 24.4044 12.3553 24.5245 12.5669C24.6446 12.7766 24.6657 13.0165 24.6004 13.2322C24.5351 13.4479 24.3855 13.6394 24.1642 13.7543L19.3645 16.2803L19.7311 16.9194L22.9063 15.2481C23.1255 15.1332 23.3762 15.1131 23.6017 15.1756C23.8271 15.2381 24.0273 15.3812 24.1474 15.5929C24.2675 15.8025 24.2885 16.0424 24.2232 16.2581C24.1579 16.4738 24.0083 16.6654 23.7871 16.7803C21.3177 18.0805 18.8483 19.3808 16.3789 20.6811L19.7269 14.095ZM14.7755 21.9209C14.2382 22.9753 13.3132 23.7292 12.245 24.0881C10.2728 24.7533 6.30959 23.191 4.8979 21.7092C3.69902 20.4513 2.37794 15.7279 1.99447 14.6454C1.99025 14.6272 1.98183 14.6071 1.97551 14.5889L1.57096 14.7482L1.9734 14.5889C1.61521 13.7624 1.72899 13.1133 2.05768 12.7323C2.17778 12.5932 2.32316 12.4903 2.48329 12.4299C2.64342 12.3694 2.81409 12.3472 2.98475 12.3714C3.41458 12.4319 3.85283 12.7766 4.10989 13.4882C4.16888 13.6515 4.3248 14.0849 4.48704 14.4902C4.63874 14.8712 4.80519 15.2461 4.94215 15.4356C4.98429 15.5062 5.0496 15.5626 5.12756 15.5989H5.51314L6.36015 14.1595C7.76552 11.3896 9.17299 8.67214 10.5889 5.89216C10.7153 5.6442 10.9365 5.46881 11.1915 5.38414C11.4464 5.29947 11.733 5.30754 11.9921 5.42849C12.2513 5.54945 12.4346 5.76112 12.5231 6.00304C12.6116 6.24697 12.6032 6.52113 12.4767 6.76909L9.73134 12.1658L10.5446 12.5448L14.1708 5.4164C14.2972 5.16844 14.5184 4.99305 14.7713 4.90838C15.0262 4.82371 15.3128 4.83177 15.5719 4.95273C15.8311 5.07369 16.0144 5.28536 16.1029 5.52929C16.1914 5.77322 16.1829 6.04739 16.0565 6.29535L12.4304 13.4237L13.2605 13.8108L16.0144 8.39797C16.1408 8.15001 16.362 7.97463 16.617 7.88996C16.8719 7.80529 17.1585 7.81335 17.4176 7.93431C17.6768 8.05526 17.8601 8.26694 17.9486 8.51087C18.0371 8.7548 18.0287 9.02896 17.9022 9.27693L15.1463 14.6877L15.9322 15.0546L17.7527 11.4743C17.8791 11.2263 18.0982 11.051 18.3531 10.9663C18.6081 10.8816 18.8946 10.8897 19.1538 11.0106C19.413 11.1316 19.5963 11.3433 19.6848 11.5872C19.7711 11.8311 19.7648 12.1053 19.6384 12.3533C18.0181 15.5425 16.3979 18.7317 14.7755 21.9209ZM18.1909 3.23112C18.1888 3.50528 17.9549 3.72704 17.6684 3.72301C17.3818 3.72099 17.1501 3.49722 17.1543 3.22305L17.1669 0.822065C17.169 0.547897 17.4029 0.326144 17.6894 0.330176C17.976 0.332192 18.2078 0.555961 18.2035 0.830129L18.1909 3.23112ZM20.9258 3.19886C20.812 3.45085 20.5044 3.56576 20.241 3.4569C19.9776 3.34804 19.8575 3.05371 19.9713 2.80172L20.9785 0.602328C21.0922 0.350335 21.3999 0.235426 21.6632 0.344287C21.9266 0.453148 22.0467 0.747476 21.9329 0.999468L20.9258 3.19886ZM21.9498 5.55348C21.7159 5.71274 21.3914 5.66234 21.225 5.43857C21.0585 5.2148 21.1112 4.90435 21.3451 4.74509L23.6607 3.15653C23.8945 2.99727 24.219 3.04767 24.3855 3.27143C24.5519 3.4952 24.4992 3.80566 24.2654 3.96492L21.9498 5.55348Z" fill="white" stroke="white" stroke-width="0.5"/>
</svg>
