<svg width="20" height="16" viewBox="0 0 14 10" fill="none" xmlns="http://www.w3.org/2000/svg">
<path fill-rule="evenodd" clip-rule="evenodd" d="M7.26824 7.03916C8.20287 7.03916 8.96055 6.28149 8.96055 5.34685C8.96055 4.41222 8.20287 3.65454 7.26824 3.65454C6.3336 3.65454 5.57593 4.41222 5.57593 5.34685C5.57593 6.28149 6.3336 7.03916 7.26824 7.03916ZM7.26824 8.05454C8.76366 8.05454 9.97593 6.84227 9.97593 5.34685C9.97593 3.85144 8.76366 2.63916 7.26824 2.63916C5.77282 2.63916 4.56055 3.85144 4.56055 5.34685C4.56055 6.84227 5.77282 8.05454 7.26824 8.05454Z" fill="#F5F5F5"/>
<path fill-rule="evenodd" clip-rule="evenodd" d="M1.78666 5.34768C2.40239 6.26569 2.99938 7.10631 3.78177 7.74644C4.62132 8.43335 5.6922 8.90091 7.26797 8.90091C8.84374 8.90091 9.91462 8.43335 10.7542 7.74644C11.5366 7.10631 12.1335 6.26569 12.7493 5.34768C11.4566 3.4368 10.0928 1.79322 7.26797 1.79322C4.4431 1.79322 3.07938 3.4368 1.78666 5.34768ZM0.753236 5.06545C2.10903 3.03175 3.73199 0.777832 7.26797 0.777832C10.804 0.777832 12.4269 3.03175 13.7827 5.06545C13.8964 5.23598 13.8964 5.45815 13.7827 5.62868L13.7629 5.65835C13.0996 6.65347 12.3869 7.72249 11.3972 8.5323C10.3752 9.36847 9.07682 9.91629 7.26797 9.91629C5.45912 9.91629 4.16077 9.36847 3.13879 8.5323C2.14902 7.72249 1.43639 6.65348 0.773024 5.65836L0.753236 5.62868C0.639546 5.45815 0.639546 5.23598 0.753236 5.06545Z" fill="#F5F5F5"/>
</svg>
