<svg width="23" height="23" viewBox="0 0 23 23" fill="none" xmlns="http://www.w3.org/2000/svg">
<path fill-rule="evenodd" clip-rule="evenodd" d="M5.05342 12.844C5.66227 12.2351 6.48803 11.8931 7.34907 11.8931H11.8942C12.7552 11.8931 13.581 12.2351 14.1898 12.844C14.7987 13.4528 15.1407 14.2786 15.1407 15.1396V16.4382C15.1407 16.7968 14.85 17.0875 14.4914 17.0875C14.1328 17.0875 13.8421 16.7968 13.8421 16.4382V15.1396C13.8421 14.623 13.6369 14.1275 13.2716 13.7622C12.9063 13.3969 12.4108 13.1917 11.8942 13.1917H7.34907C6.83245 13.1917 6.33699 13.3969 5.97168 13.7622C5.60638 14.1275 5.40115 14.623 5.40115 15.1396V16.4382C5.40115 16.7968 5.11045 17.0875 4.75184 17.0875C4.39324 17.0875 4.10254 16.7968 4.10254 16.4382V15.1396C4.10254 14.2786 4.44458 13.4528 5.05342 12.844Z" fill="white"/>
<path fill-rule="evenodd" clip-rule="evenodd" d="M9.62153 5.39969C8.54572 5.39969 7.67361 6.2718 7.67361 7.3476C7.67361 8.42341 8.54572 9.29552 9.62153 9.29552C10.6973 9.29552 11.5694 8.42341 11.5694 7.3476C11.5694 6.2718 10.6973 5.39969 9.62153 5.39969ZM6.375 7.3476C6.375 5.55459 7.82852 4.10107 9.62153 4.10107C11.4145 4.10107 12.8681 5.55459 12.8681 7.3476C12.8681 9.14061 11.4145 10.5941 9.62153 10.5941C7.82852 10.5941 6.375 9.14061 6.375 7.3476Z" fill="white"/>
<path fill-rule="evenodd" clip-rule="evenodd" d="M17.0878 7.34814C17.4464 7.34814 17.7371 7.63885 17.7371 7.99745V11.8933C17.7371 12.2519 17.4464 12.5426 17.0878 12.5426C16.7292 12.5426 16.4385 12.2519 16.4385 11.8933V7.99745C16.4385 7.63885 16.7292 7.34814 17.0878 7.34814Z" fill="white"/>
<path fill-rule="evenodd" clip-rule="evenodd" d="M14.4912 9.9452C14.4912 9.5866 14.7819 9.2959 15.1405 9.2959H19.0363C19.395 9.2959 19.6857 9.5866 19.6857 9.9452C19.6857 10.3038 19.395 10.5945 19.0363 10.5945H15.1405C14.7819 10.5945 14.4912 10.3038 14.4912 9.9452Z" fill="white"/>
</svg>
