<svg width="30" height="30" viewBox="0 0 25 25" fill="none" xmlns="http://www.w3.org/2000/svg">
<path d="M11.8672 15.4839C11.8672 15.9978 12.2426 16.3776 12.7592 16.3776C13.2971 16.3776 13.6672 15.9978 13.6672 15.4839C13.6672 14.9517 13.2962 14.5776 12.7584 14.5776C12.2426 14.5776 11.8672 14.9517 11.8672 15.4839Z" fill="#F5F5F5"/>
<path fill-rule="evenodd" clip-rule="evenodd" d="M12.7674 18.0275C15.9982 18.0275 18.6174 15.4084 18.6174 12.1775C18.6174 8.94667 15.9982 6.32754 12.7674 6.32754C9.53652 6.32754 6.91738 8.94667 6.91738 12.1775C6.91738 15.4084 9.53652 18.0275 12.7674 18.0275ZM12.7674 19.3775C16.7438 19.3775 19.9674 16.154 19.9674 12.1775C19.9674 8.20109 16.7438 4.97754 12.7674 4.97754C8.79093 4.97754 5.56738 8.20109 5.56738 12.1775C5.56738 16.154 8.79093 19.3775 12.7674 19.3775Z" fill="#F5F5F5"/>
<path fill-rule="evenodd" clip-rule="evenodd" d="M12.768 7.97754C13.0993 7.97754 13.368 8.22103 13.368 8.5214V13.4337C13.368 13.734 13.0993 13.9775 12.768 13.9775C12.4366 13.9775 12.168 13.734 12.168 13.4337V8.5214C12.168 8.22103 12.4366 7.97754 12.768 7.97754Z" fill="#F5F5F5"/>
</svg>
