<svg width="16" height="16" viewBox="0 0 16 16" fill="none" xmlns="http://www.w3.org/2000/svg">
<path fill-rule="evenodd" clip-rule="evenodd" d="M15.614 1.04046C15.7865 1.21291 15.8456 1.46856 15.7663 1.6992L11.0862 15.3141C11.0026 15.5572 10.7814 15.7264 10.5249 15.7434C10.2684 15.7604 10.0268 15.6219 9.91181 15.392L7.0287 9.62578L1.26246 6.74267C1.03256 6.62771 0.894053 6.38606 0.911076 6.12958C0.928099 5.8731 1.09733 5.65187 1.34041 5.56831L14.9553 0.888196C15.1859 0.808915 15.4416 0.868007 15.614 1.04046ZM3.19336 6.28106L7.78979 8.57928C7.9133 8.64103 8.01345 8.74118 8.0752 8.86469L10.3734 13.4611L14.1344 2.52007L3.19336 6.28106Z" fill="#EAEAEA"/>
<path fill-rule="evenodd" clip-rule="evenodd" d="M15.6132 1.9421L7.95479 9.60047L7.05225 8.69792L14.7106 1.03955L15.6132 1.9421Z" fill="#EAEAEA"/>
</svg>
