<svg width="12" height="12" viewBox="0 0 12 12" fill="none" xmlns="http://www.w3.org/2000/svg">
<circle cx="5.65793" cy="5.65793" r="5.15793" stroke="#C4C4C4"/>
<path d="M5.34753 6.813H6.70653C6.70653 5.859 8.21853 5.697 8.21853 4.257C8.21853 3.195 7.28253 2.592 5.93253 2.592C4.71753 2.592 3.87153 3.06 3.38553 3.798L4.47453 4.437C4.76253 4.023 5.20353 3.771 5.77953 3.771C6.36453 3.771 6.75153 4.05 6.75153 4.491C6.75153 5.274 5.34753 5.553 5.34753 6.813ZM6.03153 9.072C6.53553 9.072 6.89553 8.703 6.89553 8.253C6.89553 7.794 6.53553 7.452 6.03153 7.452C5.52753 7.452 5.16753 7.794 5.16753 8.253C5.16753 8.703 5.52753 9.072 6.03153 9.072Z" fill="#A9A9AD"/>
</svg>
