<svg width="30" height="30" viewBox="0 0 21 21" fill="none" xmlns="http://www.w3.org/2000/svg">
<path d="M7.55716 16.3603L6.55479 17.3565C6.13487 17.7699 5.56928 18.0015 4.98007 18.0015C4.39086 18.0015 3.82527 17.7699 3.40535 17.3565C3.20061 17.1538 3.03809 16.9125 2.92717 16.6465C2.81626 16.3806 2.75915 16.0953 2.75915 15.8072C2.75915 15.519 2.81626 15.2337 2.92717 14.9678C3.03809 14.7019 3.20061 14.4605 3.40535 14.2578L7.0931 10.6009C7.85663 9.84233 9.29461 8.72609 10.3428 9.7656C10.4556 9.88588 10.5914 9.9822 10.7423 10.0488C10.8931 10.1154 11.0558 10.151 11.2207 10.1533C11.3856 10.1557 11.5492 10.1248 11.7019 10.0625C11.8546 10.0002 11.9932 9.9078 12.1093 9.79079C12.2255 9.67377 12.3169 9.53455 12.3781 9.38143C12.4393 9.22831 12.469 9.06443 12.4655 8.89958C12.462 8.73472 12.4253 8.57226 12.3576 8.4219C12.2899 8.27154 12.1926 8.13635 12.0716 8.02441C10.292 6.25723 7.65863 6.58394 5.36555 8.85974L1.6778 12.5178C1.24207 12.9474 0.896377 13.4596 0.660944 14.0244C0.425511 14.5892 0.305067 15.1953 0.306656 15.8072C0.305136 16.4191 0.425612 17.0251 0.661041 17.5899C0.89647 18.1547 1.24213 18.6669 1.6778 19.0965C2.55605 19.9677 3.74368 20.4554 4.98069 20.4528C6.17735 20.4528 7.37401 20.0011 8.28357 19.0965L9.28718 18.1003C9.40164 17.9871 9.49261 17.8524 9.55489 17.704C9.61717 17.5556 9.64952 17.3963 9.65009 17.2353C9.65067 17.0744 9.61945 16.9149 9.55824 16.766C9.49702 16.6171 9.40701 16.4818 9.29337 16.3678C9.06365 16.1374 8.75211 16.0074 8.4268 16.006C8.10149 16.0046 7.78884 16.132 7.55716 16.3603ZM18.7342 2.14867C16.8198 0.250313 14.1444 0.147599 12.3747 1.90488L11.1261 3.14487C10.8954 3.37396 10.7651 3.68533 10.7639 4.01047C10.7628 4.33562 10.8908 4.6479 11.1199 4.87864C11.349 5.10937 11.6604 5.23964 11.9855 5.24081C12.3106 5.24197 12.6229 5.11392 12.8537 4.88482L14.1035 3.64607C15.0193 2.73525 16.2209 3.1127 17.0067 3.88986C17.4225 4.30443 17.6527 4.85389 17.6527 5.43923C17.6527 6.02458 17.4225 6.57404 17.0067 6.98737L13.0715 10.8905C11.2721 12.6738 10.4282 11.8384 10.068 11.4808C9.9538 11.3674 9.81833 11.2775 9.66937 11.2165C9.52042 11.1554 9.36089 11.1242 9.19989 11.1248C9.0389 11.1254 8.8796 11.1577 8.73108 11.2198C8.58257 11.282 8.44774 11.3727 8.33431 11.487C8.22088 11.6012 8.13106 11.7367 8.06998 11.8857C8.0089 12.0346 7.97776 12.1942 7.97833 12.3552C7.97891 12.5162 8.01119 12.6755 8.07333 12.824C8.13547 12.9725 8.22625 13.1073 8.3405 13.2208C9.16714 14.04 10.1101 14.4459 11.0976 14.4459C12.3067 14.4459 13.585 13.837 14.8015 12.6305L18.7367 8.72856C19.1715 8.29832 19.5165 7.786 19.7517 7.22133C19.9868 6.65667 20.1075 6.05091 20.1066 5.43923C20.1077 4.82711 19.987 4.22089 19.7513 3.65594C19.5157 3.09098 19.17 2.5786 18.7342 2.14867Z" fill="#F5F5F5"/>
</svg>
