<svg width="280" height="280" viewBox="0 0 210 210" fill="none" xmlns="http://www.w3.org/2000/svg">
<circle cx="105.268" cy="104.678" r="99.5" fill="black" fill-opacity="0.37" stroke="black" stroke-width="10"/>
<path d="M57.6068 80.1777H61.4948V66.5457H66.8708V63.3777H52.2308V66.5457H57.6068V80.1777ZM70.2895 65.4657C71.6815 65.4657 72.6175 64.5537 72.6175 63.3057C72.6175 62.1537 71.6815 61.2897 70.2895 61.2897C68.8975 61.2897 67.9615 62.2017 67.9615 63.3777C67.9615 64.5537 68.8975 65.4657 70.2895 65.4657ZM68.4175 80.1777H72.1615V67.2657H68.4175V80.1777ZM92.1722 67.0737C90.2282 67.0737 88.5482 67.8657 87.5162 69.1857C86.6042 67.7697 85.0682 67.0737 83.2682 67.0737C81.6122 67.0737 80.1722 67.6497 79.2122 68.7537V67.2657H75.6362V80.1777H79.3802V73.6977C79.3802 71.3937 80.5562 70.3137 82.2122 70.3137C83.7722 70.3137 84.6602 71.2737 84.6602 73.3617V80.1777H88.4042V73.6977C88.4042 71.3937 89.5802 70.3137 91.2602 70.3137C92.7722 70.3137 93.7082 71.2737 93.7082 73.3617V80.1777H97.4522V72.7857C97.4522 68.8497 95.2442 67.0737 92.1722 67.0737ZM113.597 73.7697C113.597 69.6177 110.669 67.0737 106.877 67.0737C102.941 67.0737 99.9887 69.8577 99.9887 73.7217C99.9887 77.5617 102.893 80.3697 107.357 80.3697C109.685 80.3697 111.485 79.6497 112.685 78.2817L110.693 76.1217C109.805 76.9617 108.821 77.3697 107.453 77.3697C105.485 77.3697 104.117 76.3857 103.757 74.7777H113.525C113.549 74.4657 113.597 74.0577 113.597 73.7697ZM106.901 69.9057C108.581 69.9057 109.805 70.9617 110.069 72.5937H103.709C103.973 70.9377 105.197 69.9057 106.901 69.9057ZM123.15 80.1777H135.462V77.0097H127.038V63.3777H123.15V80.1777ZM149.925 73.7697C149.925 69.6177 146.997 67.0737 143.205 67.0737C139.269 67.0737 136.317 69.8577 136.317 73.7217C136.317 77.5617 139.221 80.3697 143.685 80.3697C146.013 80.3697 147.813 79.6497 149.013 78.2817L147.021 76.1217C146.133 76.9617 145.149 77.3697 143.781 77.3697C141.813 77.3697 140.445 76.3857 140.085 74.7777H149.853C149.877 74.4657 149.925 74.0577 149.925 73.7697ZM143.229 69.9057C144.909 69.9057 146.133 70.9617 146.397 72.5937H140.037C140.301 70.9377 141.525 69.9057 143.229 69.9057ZM156.521 67.0017C156.521 65.7297 157.121 65.1297 158.225 65.1297C158.801 65.1297 159.329 65.2977 159.737 65.5857L160.721 62.8737C160.025 62.3937 158.921 62.1777 157.865 62.1777C154.649 62.1777 152.873 64.0737 152.873 66.9777V67.5537H150.881V70.4337H152.873V80.1777H156.617V70.4337H159.833V67.5537H156.521V67.0017ZM169.019 76.9137C168.611 77.2257 168.059 77.3937 167.507 77.3937C166.499 77.3937 165.899 76.7937 165.899 75.6897V70.4337H169.115V67.5537H165.899V64.4097H162.155V67.5537H160.163V70.4337H162.155V75.7377C162.155 78.8097 163.931 80.3697 166.979 80.3697C168.131 80.3697 169.259 80.1057 170.027 79.5537L169.019 76.9137Z" fill="white"/>
<rect x="51.7676" y="148.178" width="112" height="24" fill="#ED0423" fill-opacity="0.8"/>
<path d="M50.2818 131.754C58.5858 131.754 64.6818 125.466 64.6818 114.378C64.6818 103.29 58.5858 97.0017 50.2818 97.0017C42.0258 97.0017 35.8818 103.29 35.8818 114.378C35.8818 125.466 42.0258 131.754 50.2818 131.754ZM50.2818 125.178C46.4418 125.178 43.7538 122.01 43.7538 114.378C43.7538 106.746 46.4418 103.578 50.2818 103.578C54.1698 103.578 56.8578 106.746 56.8578 114.378C56.8578 122.01 54.1698 125.178 50.2818 125.178ZM82.8599 131.754C91.1639 131.754 97.2599 125.466 97.2599 114.378C97.2599 103.29 91.1639 97.0017 82.8599 97.0017C74.6039 97.0017 68.4599 103.29 68.4599 114.378C68.4599 125.466 74.6039 131.754 82.8599 131.754ZM82.8599 125.178C79.0199 125.178 76.3319 122.01 76.3319 114.378C76.3319 106.746 79.0199 103.578 82.8599 103.578C86.7479 103.578 89.4359 106.746 89.4359 114.378C89.4359 122.01 86.7479 125.178 82.8599 125.178ZM105.454 114.33C108.046 114.33 110.11 112.362 110.11 109.626C110.11 106.842 108.046 105.018 105.454 105.018C102.862 105.018 100.798 106.842 100.798 109.626C100.798 112.362 102.862 114.33 105.454 114.33ZM105.454 131.562C108.046 131.562 110.11 129.594 110.11 126.858C110.11 124.074 108.046 122.25 105.454 122.25C102.862 122.25 100.798 124.074 100.798 126.858C100.798 129.594 102.862 131.562 105.454 131.562ZM124.257 124.842L131.985 117.546C136.689 113.178 137.601 110.202 137.601 106.938C137.601 100.842 132.609 97.0017 125.121 97.0017C119.073 97.0017 114.369 99.4497 111.777 103.242L117.441 106.89C119.073 104.634 121.521 103.53 124.401 103.53C127.953 103.53 129.777 105.066 129.777 107.706C129.777 109.338 129.249 111.066 126.273 113.898L113.313 126.138V131.178H138.705V124.842H124.257ZM156.219 131.754C164.523 131.754 170.619 125.466 170.619 114.378C170.619 103.29 164.523 97.0017 156.219 97.0017C147.963 97.0017 141.819 103.29 141.819 114.378C141.819 125.466 147.963 131.754 156.219 131.754ZM156.219 125.178C152.379 125.178 149.691 122.01 149.691 114.378C149.691 106.746 152.379 103.578 156.219 103.578C160.107 103.578 162.795 106.746 162.795 114.378C162.795 122.01 160.107 125.178 156.219 125.178Z" fill="white"/>
<path d="M82.7479 178.178H79.7179V185.178H81.3379V183.248H82.7479C84.6179 183.248 85.7879 182.278 85.7879 180.718C85.7879 179.148 84.6179 178.178 82.7479 178.178ZM82.6579 181.928H81.3379V179.498H82.6579C83.6479 179.498 84.1479 179.948 84.1479 180.718C84.1479 181.478 83.6479 181.928 82.6579 181.928ZM93.4445 185.178L91.8745 182.928C92.7845 182.538 93.3145 181.768 93.3145 180.718C93.3145 179.148 92.1445 178.178 90.2745 178.178H87.2445V185.178H88.8645V183.228H90.2745H90.3545L91.7045 185.178H93.4445ZM91.6745 180.718C91.6745 181.478 91.1745 181.938 90.1845 181.938H88.8645V179.498H90.1845C91.1745 179.498 91.6745 179.948 91.6745 180.718ZM94.898 185.178H96.518V178.178H94.898V185.178ZM101.829 185.298C103.049 185.298 104.059 184.858 104.719 184.048L103.679 183.088C103.209 183.638 102.619 183.918 101.919 183.918C100.609 183.918 99.6792 182.998 99.6792 181.678C99.6792 180.358 100.609 179.438 101.919 179.438C102.619 179.438 103.209 179.718 103.679 180.258L104.719 179.298C104.059 178.498 103.049 178.058 101.839 178.058C99.6592 178.058 98.0392 179.568 98.0392 181.678C98.0392 183.788 99.6592 185.298 101.829 185.298ZM107.723 183.878V182.258H110.973V180.998H107.723V179.478H111.403V178.178H106.113V185.178H111.533V183.878H107.723ZM111.962 186.178H113.352L116.652 176.758H115.262L111.962 186.178ZM122.138 178.178V180.938H118.958V178.178H117.338V185.178H118.958V182.308H122.138V185.178H123.758V178.178H122.138ZM125.714 185.178H127.334V178.178H125.714V185.178ZM130.746 185.178H132.366V179.498H134.606V178.178H128.506V179.498H130.746V185.178Z" fill="#F5F5F5"/>
<path d="M65.9221 157.958H62.4421V154.558H59.8621V157.958H56.4021V160.398H59.8621V163.798H62.4421V160.398H65.9221V157.958ZM72.0423 163.538L75.2623 160.498C77.2223 158.678 77.6023 157.438 77.6023 156.078C77.6023 153.538 75.5223 151.938 72.4023 151.938C69.8823 151.938 67.9223 152.958 66.8423 154.538L69.2023 156.058C69.8823 155.118 70.9023 154.658 72.1023 154.658C73.5823 154.658 74.3423 155.298 74.3423 156.398C74.3423 157.078 74.1223 157.798 72.8823 158.978L67.4823 164.078V166.178H78.0623V163.538H72.0423ZM85.3601 166.418C88.8201 166.418 91.3601 163.798 91.3601 159.178C91.3601 154.558 88.8201 151.938 85.3601 151.938C81.9201 151.938 79.3601 154.558 79.3601 159.178C79.3601 163.798 81.9201 166.418 85.3601 166.418ZM85.3601 163.678C83.7601 163.678 82.6401 162.358 82.6401 159.178C82.6401 155.998 83.7601 154.678 85.3601 154.678C86.9801 154.678 88.1001 155.998 88.1001 159.178C88.1001 162.358 86.9801 163.678 85.3601 163.678ZM102.378 166.178H105.618V154.818H110.098V152.178H97.8984V154.818H102.378V166.178ZM115.648 166.338C119.068 166.338 121.548 164.038 121.548 160.798C121.548 157.558 119.068 155.258 115.648 155.258C112.228 155.258 109.728 157.558 109.728 160.798C109.728 164.038 112.228 166.338 115.648 166.338ZM115.648 163.778C114.088 163.778 112.888 162.658 112.888 160.798C112.888 158.938 114.088 157.818 115.648 157.818C117.208 157.818 118.388 158.938 118.388 160.798C118.388 162.658 117.208 163.778 115.648 163.778ZM131.653 166.178H135.433L130.553 159.978L135.033 155.418H131.313L126.753 159.738V151.338H123.633V166.178H126.753V163.438L128.253 161.958L131.653 166.178ZM146.908 160.838C146.908 157.378 144.468 155.258 141.308 155.258C138.028 155.258 135.568 157.578 135.568 160.798C135.568 163.998 137.988 166.338 141.708 166.338C143.648 166.338 145.148 165.738 146.148 164.598L144.488 162.798C143.748 163.498 142.928 163.838 141.788 163.838C140.148 163.838 139.008 163.018 138.708 161.678H146.848C146.868 161.418 146.908 161.078 146.908 160.838ZM141.328 157.618C142.728 157.618 143.748 158.498 143.968 159.858H138.668C138.888 158.478 139.908 157.618 141.328 157.618ZM155.525 155.258C154.065 155.258 152.805 155.758 151.965 156.678V155.418H148.985V166.178H152.105V160.858C152.105 158.878 153.185 157.958 154.685 157.958C156.065 157.958 156.865 158.758 156.865 160.498V166.178H159.985V160.018C159.985 156.738 158.065 155.258 155.525 155.258Z" fill="white"/>
<path d="M101.271 27.1883L104.998 13.4585L90.0879 31.4128H98.7855L95.058 45.1426L108.726 27.1883H101.271Z" fill="#FCCF37"/>
<path fill-rule="evenodd" clip-rule="evenodd" d="M105.363 12.7557C105.694 12.9275 105.86 13.3066 105.763 13.6662L102.307 26.3963H108.726C109.027 26.3963 109.302 26.567 109.436 26.8367C109.569 27.1065 109.538 27.4287 109.356 27.6682L95.6884 45.6225C95.4588 45.924 95.0479 46.0207 94.7079 45.8532C94.368 45.6857 94.1944 45.3009 94.2937 44.9352L97.7498 32.2051H90.088C89.7809 32.2051 89.5015 32.0275 89.371 31.7495C89.2405 31.4715 89.2824 31.1432 89.4786 30.9069L104.389 12.9526C104.627 12.6659 105.033 12.5839 105.363 12.7557ZM91.7755 30.6208H98.7857C99.0324 30.6208 99.265 30.7358 99.4149 30.9318C99.5647 31.1278 99.6147 31.3824 99.5501 31.6205L96.8857 41.4342L107.127 27.9805H101.271C101.024 27.9805 100.791 27.8656 100.641 27.6696C100.492 27.4736 100.442 27.219 100.506 26.9809L103.279 16.7691L91.7755 30.6208Z" fill="#FCCF37"/>
<path d="M83.0943 53.8349C83.6229 53.5567 83.9568 53.0559 83.9568 52.4068C83.9568 51.396 83.1222 50.719 81.4993 50.719H78.3278V57.2104H81.6848C83.3911 57.2104 84.2813 56.5613 84.2813 55.4392C84.2813 54.6232 83.8177 54.0668 83.0943 53.8349ZM81.3138 51.8504C82.0464 51.8504 82.4452 52.1008 82.4452 52.6108C82.4452 53.1209 82.0464 53.3805 81.3138 53.3805H79.8208V51.8504H81.3138ZM81.5735 56.0791H79.8208V54.4748H81.5735C82.3525 54.4748 82.7698 54.7344 82.7698 55.2816C82.7698 55.838 82.3525 56.0791 81.5735 56.0791ZM85.4187 57.2104H86.921V50.719H85.4187V57.2104ZM88.4616 57.2104H91.4105C93.5341 57.2104 94.9901 55.9307 94.9901 53.9647C94.9901 51.9988 93.5341 50.719 91.4105 50.719H88.4616V57.2104ZM89.9639 55.9771V51.9524H91.3363C92.6253 51.9524 93.4692 52.7221 93.4692 53.9647C93.4692 55.2074 92.6253 55.9771 91.3363 55.9771H89.9639ZM103.655 51.9246V50.719H98.7493V57.2104H100.252V54.8457H103.256V53.6402H100.252V51.9246H103.655ZM109.25 57.2104H110.827L107.924 50.719H106.44L103.547 57.2104H105.087L105.661 55.8194H108.675L109.25 57.2104ZM106.144 54.6788L107.173 52.1935L108.202 54.6788H106.144ZM113.633 57.3217C115.488 57.3217 116.387 56.3944 116.387 55.3094C116.387 52.9261 112.613 53.7515 112.613 52.5552C112.613 52.1471 112.956 51.8133 113.846 51.8133C114.421 51.8133 115.043 51.9802 115.646 52.3233L116.109 51.1827C115.506 50.8025 114.672 50.6078 113.856 50.6078C112.01 50.6078 111.12 51.5258 111.12 52.6294C111.12 55.0405 114.894 54.2059 114.894 55.4207C114.894 55.8194 114.533 56.1162 113.642 56.1162C112.863 56.1162 112.047 55.838 111.5 55.4392L110.99 56.5706C111.565 57.0157 112.604 57.3217 113.633 57.3217ZM118.668 57.2104H120.17V51.9431H122.248V50.719H116.591V51.9431H118.668V57.2104Z" fill="#FCCF37"/>
<path fill-rule="evenodd" clip-rule="evenodd" d="M102.768 0.207031C46.2088 1.53488 0.767578 47.7996 0.767578 104.678C0.767578 162.391 47.5538 209.178 105.268 209.178C106.635 209.178 107.996 209.151 109.351 209.099L107.022 199.162C106.438 199.172 105.854 199.178 105.268 199.178C53.0767 199.178 10.7676 156.869 10.7676 104.678C10.7676 53.3227 51.7322 11.5355 102.768 10.2101V0.207031Z" fill="#FCCF37"/>
</svg>
